<svg width="172" height="140" viewBox="0 0 172 140" fill="none" xmlns="http://www.w3.org/2000/svg">
<g clip-path="url(#clip0_60489_14644)">
<path d="M105.731 17.1499C103.623 17.1499 101.799 21.8127 100.895 28.6253C100.177 16.5121 98.1397 7.77492 95.7352 7.77492C93.5826 7.77492 91.7203 14.7965 90.844 24.9798C90.0771 10.3922 88.0834 0 85.7446 0C83.4058 0 81.412 10.3922 80.6452 24.9743C79.7633 14.791 77.9065 7.76942 75.7539 7.76942C73.3549 7.76942 71.3173 16.5066 70.5943 28.6198C69.6906 21.8072 67.8666 17.1444 65.7578 17.1444C62.7563 17.1499 60.3243 26.6074 60.3243 38.2753C60.3243 49.9431 62.7563 59.4061 65.7633 59.4061C67.8721 59.4061 69.696 54.7434 70.5998 47.9307C71.3173 60.0439 73.3549 68.7811 75.7594 68.7811C77.912 68.7811 79.7743 61.7595 80.6507 51.5762C81.4175 66.1583 83.4112 76.5505 85.7501 76.5505C88.0889 76.5505 90.0826 66.1583 90.8494 51.5762C91.7313 61.7595 93.5881 68.7811 95.7407 68.7811C98.1397 68.7811 100.177 60.0439 100.9 47.9307C101.804 54.7434 103.628 59.4061 105.737 59.4061C108.738 59.4061 111.176 49.9486 111.176 38.2753C111.176 26.6019 108.744 17.1444 105.737 17.1444L105.731 17.1499Z" fill="black"/>
<path d="M26.0324 89.2469H32.6595V127.309H26.0324V111.359H6.97681V127.309H0.295044V89.2469H6.97681V104.973H26.0324V89.2469Z" fill="black"/>
<path d="M63.2032 97.6402H69.5295L69.5131 127.107H63.1868L63.2032 122.705C60.6715 125.915 57.3197 127.517 53.1368 127.517C50.4794 127.517 48.068 126.861 45.9027 125.548C43.7429 124.241 42.0479 122.437 40.8285 120.146C39.6092 117.855 39.0023 115.296 39.0023 112.475C39.0023 109.653 39.6147 107.094 40.8285 104.803C42.0479 102.512 43.7429 100.713 45.9027 99.4008C48.0626 98.0885 50.4739 97.4324 53.1368 97.4324C57.3361 97.4324 60.6879 99.029 63.2032 102.217V97.6456V97.6402ZM54.3725 121.409C56.9041 121.409 59.0038 120.551 60.6825 118.839C62.3611 117.128 63.1977 115.001 63.1977 112.475C63.1977 109.948 62.3611 107.794 60.6825 106.083C59.0038 104.366 56.9041 103.513 54.3725 103.513C51.8409 103.513 49.7029 104.371 48.0079 106.083C46.3128 107.794 45.4653 109.927 45.4653 112.475C45.4653 115.023 46.3128 117.128 48.0079 118.839C49.7029 120.556 51.8245 121.409 54.3725 121.409Z" fill="black"/>
<path d="M110.429 97.6347C113.694 97.6347 116.302 98.6189 118.254 100.576C120.206 102.539 121.179 105.142 121.179 108.385L121.163 127.309H114.837L114.853 110.255C114.853 108.275 114.273 106.69 113.12 105.498C111.966 104.306 110.424 103.71 108.499 103.71C106.465 103.71 104.819 104.322 103.562 105.552C102.304 106.777 101.681 108.385 101.681 110.364L101.664 127.309H95.3653L95.3817 110.255C95.3817 108.275 94.7967 106.69 93.632 105.498C92.4673 104.306 90.9254 103.71 89.0007 103.71C87.076 103.71 85.3482 104.322 84.0905 105.536C82.8384 106.755 82.2096 108.363 82.2096 110.364L82.1932 127.309H75.8668L75.8832 97.8425H82.2096V101.675C84.3913 98.9798 87.3494 97.6347 91.0894 97.6347C93.1782 97.6347 95.0209 98.0831 96.6175 98.9689C98.2141 99.8601 99.4498 101.101 100.33 102.698C102.66 99.3243 106.022 97.6347 110.424 97.6347H110.429Z" fill="black"/>
<path d="M127.527 127.309L127.544 89.2469H133.87L133.854 127.309H127.527Z" fill="black"/>
<path d="M164.162 98.9853H171.205L156.491 134.084C155.72 135.937 154.599 137.386 153.123 138.431C151.646 139.475 150.028 140 148.273 140C147.059 140 145.801 139.738 144.489 139.218C143.177 138.693 142.056 138.01 141.121 137.173L143.652 132.274C144.697 133.378 145.894 133.925 147.256 133.925C148.776 133.925 149.924 133.11 150.695 131.476L152.237 127.457L140.218 98.9853H147.452L155.786 120.004L164.173 98.9853H164.162Z" fill="black"/>
</g>
<defs>
<clipPath id="clip0_60489_14644">
<rect width="170.91" height="140" fill="white" transform="translate(0.295044)"/>
</clipPath>
</defs>
</svg>
